<?xml version="1.0" encoding="UTF-8"?>
<svg id="Lag_1" xmlns="http://www.w3.org/2000/svg" version="1.1" viewBox="0 0 595.28 841.89">
  <!-- Generator: Adobe Illustrator 29.8.2, SVG Export Plug-In . SVG Version: 2.1.1 Build 3)  -->
  <defs>
    <style>
      .st0 {
        fill: #3f813a;
      }

      .st1 {
        fill: #99bd63;
      }

      .st2 {
        fill: #87bd2e;
      }

      .st3 {
        stroke: #3f813a;
      }

      .st3, .st4 {
        fill: none;
        stroke-miterlimit: 10;
      }

      .st4 {
        stroke: #1d1d1b;
      }
    </style>
  </defs>
  <g>
    <path class="st2" d="M203.49,127.03c3.31,1.94,5.56,5.53,5.56,5.53l19.83,3.09c-.82-9.03-14.96-23.31-14.96-23.31l-10.43,14.68Z"/>
    <path class="st4" d="M190.61,312.73"/>
    <path class="st0" d="M87.11,130.19c-39.84,90.33,21.78,145.11,34.82,155.48,1.58,1.26,2.97,2.77,4.65,3.9,29.88,20.18,64.95,24.58,64.96,23.16l-5.08-9.24c-74.06-12.44-94.24-66.47-97.9-78.69-.63-2.11-1.34-4.2-2.02-6.29-12.93-39.52,6.03-78.38,6.03-78.38l2.39-5.14-7.86-4.79Z"/>
    <path class="st4" d="M206.8,312.73"/>
    <path class="st1" d="M100.47,139.26l4.6,2.13c-16.27,30.85-8.84,64.9-8.84,64.9,12.03,60.64,63.67,78.02,63.67,78.02,6.72,3.19,14.5,4.96,14.5,4.96,3.54,4.96,8.49,6.03,8.49,6.03-36.22-4.34-61.19-30.88-61.19-30.88-21.97-23.89-25.21-40.62-25.21-40.62-6.18-17.81-5.56-24.85-5.56-24.85-3.86-37.24,9.54-59.7,9.54-59.7Z"/>
    <g>
      <path class="st0" d="M182.89,148.6s-39.13-19.08-68.43-47.15l2.61,1.51c46.97,28.47,81.39,30.18,81.39,30.18"/>
      <path class="st0" d="M182.89,148.6c13.92,58.14,13.65,191.54,15.49,191.56,1.51-.15,3.94-141.12,15.49-191.56,0,0,39.13-19.08,68.43-47.15l-2.61,1.51c-46.97,28.47-81.39,30.18-81.39,30.18"/>
    </g>
    <path class="st4" d="M225.68,333.48"/>
    <path class="st2" d="M194.6,254.78c-12.71-19.06-2.13-33.98-2.13-33.98l-1.59-18.3c-33.17,32.34,4.19,61.47,4.19,61.47l-.46-9.2Z"/>
    <path class="st2" d="M205.97,206.62s37.73-47.24,25.58-67.72l-15.72,8.67s4.34,6.47-7.2,34.49l-2.67,24.56Z"/>
    <path class="st2" d="M177.14,148.6s-108.66,11.71-120.45-86l5.9-5.91s122.08,11.49,108.9,68.33c0,0-47.32-16.33-65.29-33.56,0,0,5.94,25.36,70.94,57.14Z"/>
    <path class="st2" d="M219.96,148.6s108.43,11.71,120.19-86l-5.88-5.91s-121.82,11.49-108.67,68.33c0,0,47.22-16.33,65.15-33.56,0,0-5.93,25.36-70.79,57.14Z"/>
    <path class="st0" d="M144.52,73.21s48.91-25.87,107.19,0l-7.7,6.05s-44.12-17.74-90.95,0l-8.53-6.05Z"/>
    <path class="st2" d="M237.97,85.57c-41.73-17.39-79.09,0-79.09,0l2.91,3.29c40.79-14.82,73.47,0,73.47,0"/>
    <path class="st0" d="M158.88,85.57"/>
    <path class="st2" d="M190.52,110.93c-24.64,2.51-21.59,27.81-22.66,30.36-.78,3.27,1.64,8.48,1.64,8.48,0,3.83,3.13,6.27,3.13,6.27,3.06-.01,5.52-4.81,5.53-4.79,4.67-3.63,5.01-11.37,5.01-11.37,2.44-15.45,13.25-14.26,12.91-13.64"/>
    <ellipse class="st0" cx="198.43" cy="112.34" rx="15.49" ry="15.53"/>
    <polyline class="st3" points="172.94 155.98 172.94 157.08 172.29 157.87"/>
    <line class="st3" x1="173.81" y1="157.87" x2="172.94" y2="156.96"/>
    <path class="st0" d="M311.23,130.19c39.84,90.33-21.78,145.11-34.82,155.48-1.58,1.26-2.93,2.83-4.65,3.9-37.8,23.35-64.95,24.58-64.96,23.16l5.08-9.24c74.06-12.44,94.24-66.47,97.9-78.69.63-2.11,1.34-4.2,2.02-6.29,12.93-39.52-6.03-78.38-6.03-78.38l-2.39-5.14,7.86-4.79Z"/>
    <path class="st1" d="M298.25,139.52l-4.6,2.13c16.27,30.85,8.84,64.9,8.84,64.9-12.03,60.64-63.67,78.02-63.67,78.02-6.72,3.19-14.5,4.96-14.5,4.96-3.54,4.96-8.49,6.03-8.49,6.03,36.22-4.34,61.19-30.88,61.19-30.88,21.97-23.89,25.21-40.62,25.21-40.62,6.18-17.81,5.56-24.85,5.56-24.85,3.86-37.24-9.54-59.7-9.54-59.7Z"/>
    <path class="st2" d="M202.13,312.73s19.61-27.48.41-52.58l-.49,9.49s8.49,20.84.08,43.09Z"/>
  </g>
  <path class="st0" d="M382.06,399.22"/>
</svg>