<?xml version="1.0" encoding="UTF-8"?>
<svg id="Lag_1" xmlns="http://www.w3.org/2000/svg" version="1.1" viewBox="0 0 595.28 841.89">
  <!-- Generator: Adobe Illustrator 29.8.2, SVG Export Plug-In . SVG Version: 2.1.1 Build 3)  -->
  <defs>
    <style>
      .st0 {
        fill: #3f813a;
      }

      .st1 {
        fill: #99bd63;
      }

      .st2 {
        fill: #87bd2e;
      }

      .st3 {
        stroke: #3f813a;
      }

      .st3, .st4 {
        fill: none;
        stroke-miterlimit: 10;
      }

      .st4 {
        stroke: #1d1d1b;
      }
    </style>
  </defs>
  <g>
    <path class="st2" d="M309.28,193.78c6.8,3.79,11.41,10.79,11.41,10.79l40.68,6.02c-1.69-17.59-30.69-45.43-30.69-45.43l-21.4,28.62Z"/>
    <path class="st4" d="M282.87,555.74"/>
    <path class="st0" d="M70.53,199.95c-81.73,176.06,44.69,282.84,71.44,303.05,3.25,2.45,6.09,5.39,9.53,7.6,61.3,39.33,133.24,47.9,133.27,45.14l-10.41-18.02c-151.95-24.24-193.35-129.55-200.84-153.38-1.29-4.11-2.74-8.18-4.15-12.26-26.53-77.02,12.37-152.77,12.37-152.77l4.91-10.01-16.12-9.35Z"/>
    <path class="st4" d="M316.08,555.74"/>
    <path class="st1" d="M97.94,217.62l9.43,4.15c-33.38,60.14-18.14,126.49-18.14,126.49,24.67,118.2,130.63,152.07,130.63,152.07,13.79,6.22,29.75,9.68,29.75,9.68,7.26,9.68,17.42,11.75,17.42,11.75-74.31-8.45-125.53-60.18-125.53-60.18-45.07-46.57-51.73-79.17-51.73-79.17-12.67-34.71-11.41-48.44-11.41-48.44-7.92-72.59,19.58-116.35,19.58-116.35Z"/>
    <g>
      <path class="st0" d="M267.03,235.83s-80.27-37.18-140.39-91.89l5.35,2.94c96.35,55.5,166.97,58.83,166.97,58.83"/>
      <path class="st0" d="M267.03,235.83c28.56,113.32,28,373.32,31.79,373.36,3.11-.28,8.08-275.05,31.79-373.36,0,0,80.27-37.18,140.39-91.89l-5.35,2.94c-96.35,55.5-166.97,58.83-166.97,58.83"/>
    </g>
    <path class="st4" d="M354.82,596.17"/>
    <path class="st2" d="M291.05,442.79c-26.07-37.14-4.38-66.23-4.38-66.23l-3.27-35.66c-68.05,63.04,8.59,119.82,8.59,119.82l-.95-17.93Z"/>
    <path class="st2" d="M314.37,348.93s77.4-92.07,52.47-131.99l-32.24,16.89s8.9,12.61-14.76,67.23l-5.47,47.87Z"/>
    <path class="st2" d="M255.24,235.83S32.32,258.65,8.13,68.21l12.1-11.52s250.45,22.4,223.41,133.19c0,0-97.07-31.83-133.94-65.42,0,0,12.18,49.44,145.55,111.36Z"/>
    <path class="st2" d="M343.08,235.83s222.45,22.82,246.59-167.62l-12.07-11.52s-249.92,22.4-222.94,133.19c0,0,96.87-31.83,133.66-65.42,0,0-12.16,49.44-145.23,111.36Z"/>
    <path class="st0" d="M188.3,88.89s100.34-50.43,219.9,0l-15.8,11.79s-90.52-34.57-186.6,0l-17.51-11.79Z"/>
    <path class="st2" d="M380.03,112.97c-85.62-33.9-162.26,0-162.26,0l5.98,6.42c83.69-28.88,150.73,0,150.73,0"/>
    <path class="st0" d="M217.77,112.97"/>
    <path class="st2" d="M282.68,162.42c-50.54,4.89-44.29,54.21-46.5,59.17-1.61,6.38,3.37,16.52,3.37,16.52,0,7.46,6.42,12.22,6.42,12.22,6.27-.03,11.32-9.38,11.35-9.33,9.58-7.08,10.28-22.16,10.28-22.16,5-30.12,27.19-27.79,26.48-26.58"/>
    <ellipse class="st0" cx="298.9" cy="165.16" rx="31.79" ry="30.28"/>
    <polyline class="st3" points="246.61 250.21 246.61 252.36 245.29 253.9"/>
    <line class="st3" x1="248.4" y1="253.9" x2="246.61" y2="252.12"/>
    <path class="st0" d="M530.33,199.95c81.73,176.06-44.69,282.84-71.44,303.05-3.25,2.45-6,5.52-9.53,7.6-77.56,45.51-133.24,47.9-133.27,45.14l10.41-18.02c151.95-24.24,193.35-129.55,200.84-153.38,1.29-4.11,2.74-8.18,4.15-12.26,26.53-77.02-12.37-152.77-12.37-152.77l-4.91-10.01,16.12-9.35Z"/>
    <path class="st1" d="M503.69,218.13l-9.43,4.15c33.38,60.14,18.14,126.49,18.14,126.49-24.67,118.2-130.63,152.07-130.63,152.07-13.79,6.22-29.75,9.68-29.75,9.68-7.26,9.68-17.42,11.75-17.42,11.75,74.31-8.45,125.53-60.18,125.53-60.18,45.07-46.57,51.73-79.17,51.73-79.17,12.67-34.71,11.41-48.44,11.41-48.44,7.92-72.59-19.58-116.35-19.58-116.35Z"/>
    <path class="st2" d="M306.49,555.74s40.23-53.56.84-102.48l-1,18.49s17.42,40.62.16,83.99Z"/>
  </g>
  <path class="st0" d="M382.06,399.22"/>
</svg>